<svg aria-hidden="true" style="width:0;height:0;position:absolute;overflow:hidden" xmlns="http://www.w3.org/2000/svg"><defs><symbol id="icon-youtube" viewBox="0 0 31 32"><path fill="#120d26" style="fill:var(--color1,#120d26)" d="M30.077 8.603a3.862 3.862 0 0 0-2.688-2.71l-.027-.006c-2.396-.641-12.003-.641-12.003-.641s-9.606 0-12.003.641a3.863 3.863 0 0 0-2.71 2.689l-.006.027c-.641 2.396-.641 7.395-.641 7.395s0 4.998.641 7.393a3.863 3.863 0 0 0 2.689 2.71l.027.006c2.396.643 12.003.643 12.003.643s9.606 0 12.003-.643a3.862 3.862 0 0 0 2.709-2.689l.006-.027c.643-2.395.643-7.393.643-7.393s0-4.998-.643-7.395z"/><path fill="#fff" style="fill:var(--color2,#fff)" d="m12.288 20.611 7.982-4.608-7.981-4.608v9.216z"/></symbol><symbol id="icon-arrow-down" viewBox="0 0 31 32"><path d="M5.722 10.842a.957.957 0 0 1 1.252-.091l-.003-.002.108.093 8.282 8.28 8.282-8.282a.959.959 0 0 1 1.252-.091l-.003-.002.108.093a.957.957 0 0 1 .091 1.252l.002-.003-.093.108-8.96 8.96a.957.957 0 0 1-1.252.091l.003.002-.108-.093-8.96-8.96a.959.959 0 0 1 0-1.356z"/></symbol><symbol id="icon-arrow-right" viewBox="0 0 33 32"><path d="M11.293 26.04a.997.997 0 0 1-.095-1.304l-.002.003.097-.112L19.918 16l-8.627-8.627a.995.995 0 0 1-.094-1.304l-.002.003.097-.112a.997.997 0 0 1 1.304-.095l-.003-.002.112.097 9.333 9.333a.997.997 0 0 1 .095 1.304l.002-.003-.097.112-9.333 9.333a1 1 0 0 1-1.414 0z"/></symbol><symbol id="icon-facebook" viewBox="0 0 31 32"><path d="m22.451 17.789.847-5.517h-5.294V8.691c0-1.51.739-2.981 3.11-2.981h2.406V1.012S21.336.64 19.247.64c-4.36 0-7.209 2.642-7.209 7.427v4.205H7.191v5.518h4.847v13.338a19.355 19.355 0 0 0 6.075-.015l-.11.015V17.79h4.448z"/></symbol><symbol id="icon-google" viewBox="0 0 97 32"><path d="M12.156.004h.859c2.98.066 5.912 1.283 8.018 3.438-.778.806-1.571 1.579-2.332 2.385-1.182-1.085-2.608-1.924-4.163-2.221-2.3-.493-4.779-.049-6.706 1.283-2.106 1.398-3.531 3.767-3.839 6.3-.34 2.5.356 5.132 1.96 7.073 1.539 1.892 3.888 3.076 6.317 3.158 2.268.132 4.633-.576 6.285-2.188 1.296-1.135 1.895-2.862 2.089-4.54-2.689 0-5.378.016-8.066 0v-3.389H23.9c.583 3.635-.259 7.731-2.98 10.331-1.814 1.842-4.325 2.928-6.884 3.141-2.478.247-5.037-.23-7.241-1.447a12.597 12.597 0 0 1-5.782-6.695C.041 14.018.025 11.056.932 8.425A12.511 12.511 0 0 1 5.387 2.42C7.347.957 9.728.15 12.158.002zm64.953.855h3.466v23.49c-1.15 0-2.316.016-3.466-.017.016-7.813 0-15.644 0-23.474zM31.61 9.001c2.138-.411 4.454.05 6.22 1.349 1.604 1.151 2.721 2.961 3.061 4.934.437 2.287-.113 4.787-1.571 6.596-1.571 2.023-4.147 3.109-6.657 2.945-2.3-.131-4.535-1.299-5.896-3.207-1.539-2.106-1.911-5.001-1.069-7.468.843-2.649 3.223-4.672 5.913-5.149zm.485 3.125a4.377 4.377 0 0 0-2.262 1.456l-.006.008c-1.571 1.908-1.474 5.018.259 6.794.988 1.02 2.478 1.497 3.855 1.217 1.28-.23 2.397-1.102 3.013-2.254 1.069-1.957.761-4.655-.875-6.185-1.053-.987-2.592-1.398-3.985-1.037zm16.684-3.125c2.446-.477 5.119.213 6.949 1.957 2.98 2.714 3.305 7.797.761 10.923-1.539 1.973-4.033 3.059-6.495 2.944-2.349-.066-4.665-1.25-6.058-3.207-1.571-2.155-1.911-5.116-1.02-7.633.891-2.566 3.223-4.524 5.863-4.985zm.486 3.125a4.44 4.44 0 0 0-2.262 1.44l-.006.007c-1.555 1.875-1.49 4.935.178 6.727.988 1.069 2.527 1.596 3.952 1.3 1.264-.247 2.398-1.102 3.013-2.253 1.053-1.974.745-4.672-.907-6.202-1.053-.987-2.592-1.381-3.969-1.02zm14.076-2.171c1.863-1.184 4.341-1.513 6.349-.493.632.279 1.15.757 1.652 1.234.017-.444 0-.905.017-1.365 1.085.017 2.17 0 3.272.017v14.509c-.017 2.188-.567 4.507-2.122 6.102-1.701 1.76-4.309 2.303-6.657 1.941-2.511-.379-4.698-2.237-5.669-4.589.972-.477 1.992-.855 2.996-1.3.567 1.349 1.717 2.5 3.159 2.764s3.11-.099 4.049-1.316c1.004-1.25 1.004-2.961.956-4.491-.745.74-1.603 1.398-2.64 1.645-2.252.642-4.73-.148-6.463-1.694-1.749-1.546-2.786-3.931-2.689-6.3.049-2.682 1.539-5.264 3.79-6.662zm3.353 2.105c-.988.165-1.911.724-2.543 1.497-1.523 1.842-1.523 4.787.016 6.596.875 1.069 2.284 1.661 3.644 1.514 1.28-.132 2.462-.955 3.094-2.09 1.069-1.924.891-4.54-.55-6.218a3.952 3.952 0 0 0-3.661-1.3zm18.044-1.266c1.943-1.842 4.94-2.467 7.435-1.497 2.365.905 3.871 3.191 4.633 5.543-3.515 1.481-7.014 2.944-10.529 4.425.486.938 1.231 1.793 2.235 2.139 1.409.51 3.094.329 4.276-.625.47-.362.842-.839 1.198-1.3.891.609 1.782 1.201 2.673 1.81-1.263 1.925-3.386 3.274-5.669 3.487-2.527.313-5.216-.675-6.852-2.682-2.689-3.158-2.43-8.455.599-11.301zm1.733 3.043c-.55.806-.777 1.793-.761 2.764 10.702-4.182 13.024-5.183 15.342-6.192l-8.296 3.214c-.389-.921-1.328-1.481-2.284-1.628-1.539-.279-3.142.559-4.001 1.842z"/></symbol><symbol id="icon-huawei" viewBox="0 0 135 32"><path d="M50.847 11.277h-2.94v14.115h2.941V19.67h6.45v5.722h2.846V11.277h-2.846v5.722h-6.45v-5.722zm22.575 8.107c0 2.289-1.138 3.528-3.225 3.528s-3.225-1.24-3.225-3.624v-8.012h-2.845v8.106c0 4.006 2.182 6.294 6.07 6.294s6.071-2.289 6.071-6.39v-8.011h-2.845v8.106zm27.508-8.107-3.225 9.728-3.13-9.728H91.54l4.932 14.115h2.371l3.225-9.251 3.13 9.251h2.466l4.838-14.115h-2.94l-3.13 9.728-3.225-9.728h-2.276zm21.911 5.437h-5.217v-2.861h7.588v-2.575h-10.434v14.115h10.718v-2.575h-7.873v-3.529h5.217v-2.575zm6.07-5.437h2.845v14.115h-2.845V11.277zM88.314 22.436l1.233 2.957h3.036l-6.166-14.115-.095-.095h-2.466l-6.166 14.21h2.941l1.233-2.766.095-.191h6.355zm-3.225-7.63 1.992 4.769.095.286h-4.363l.095-.286 2.182-4.769zM19.83 23.961s.095-.095 0-.095C15.467 14.329 9.491 6.985 9.491 6.985s-3.225 3.052-3.036 6.199c.095 2.384 1.897 3.719 1.897 3.719 2.846 2.766 9.675 6.295 11.288 7.058h.189zm-1.138 2.385c0-.095-.189-.095-.189-.095l-11.383.381c1.233 2.194 3.32 3.91 5.501 3.433 1.518-.381 4.932-2.766 5.976-3.529.19-.191.095-.191.095-.191zm.19-1.049c.095-.095 0-.191 0-.191-5.027-3.433-14.702-8.583-14.702-8.583-.854 2.766.285 4.959.285 4.959 1.233 2.67 3.604 3.433 3.604 3.433 1.043.477 2.182.477 2.182.477h8.537c.095 0 .095-.095.095-.095zm.759-23.271c-.474 0-1.802.381-1.802.381-3.035.763-3.699 3.529-3.699 3.529-.569 1.717 0 3.624 0 3.624 1.043 4.482 5.976 11.922 7.019 13.447l.095.095c.095 0 .095-.095.095-.095 1.708-16.69-1.707-20.982-1.707-20.982zm3.794 20.983c.095 0 .19-.096.19-.096 1.138-1.621 5.976-8.965 7.019-13.447 0 0 .569-2.194 0-3.624 0 0-.759-2.766-3.794-3.529 0 0-.854-.19-1.802-.381 0 0-3.415 4.387-1.708 20.887 0 .19.095.19.095.19zm2.656 3.242s-.095 0-.095.095v.191c1.138.763 4.364 3.148 5.976 3.529 0 0 2.941 1.049 5.502-3.433l-11.382-.381zm14.513-9.823s-9.675 5.245-14.702 8.679c0 0-.095.095-.095.191 0 0 0 .095.095.095h8.727s.854 0 1.992-.477c0 0 2.372-.763 3.699-3.529 0-.095 1.138-2.289.285-4.96zm-15.652 7.533s.095.095.19 0c1.613-.858 8.442-4.292 11.288-7.058 0 0 1.802-1.431 1.897-3.719.19-3.243-3.036-6.199-3.036-6.199s-5.975 7.153-10.339 16.785c0 0-.095.095 0 .191z"/></symbol><symbol id="icon-instagram" viewBox="0 0 31 32"><path d="M15.36.64c-4.172 0-4.695.018-6.333.092-1.635.074-2.752.334-3.727.714a7.57 7.57 0 0 0-2.719 1.77l-.001.001a7.532 7.532 0 0 0-1.755 2.67l-.017.051c-.38.977-.64 2.093-.714 3.727-.074 1.638-.092 2.162-.092 6.333s.018 4.695.092 6.333c.074 1.635.334 2.752.714 3.727a7.521 7.521 0 0 0 1.772 2.721 7.539 7.539 0 0 0 2.67 1.754l.051.017c.978.38 2.094.64 3.729.714 1.638.074 2.162.092 6.333.092s4.695-.018 6.333-.092c1.635-.076 2.752-.334 3.727-.714a7.566 7.566 0 0 0 2.72-1.77l.001-.001a7.539 7.539 0 0 0 1.754-2.67l.017-.052c.38-.977.64-2.093.714-3.727.074-1.638.092-2.163.092-6.333 0-4.172-.018-4.695-.092-6.333-.076-1.635-.334-2.752-.714-3.727a7.566 7.566 0 0 0-1.77-2.72l-.001-.001a7.543 7.543 0 0 0-2.671-1.754l-.052-.017c-.977-.38-2.093-.64-3.727-.714-1.638-.074-2.163-.092-6.333-.092zm0 2.767c4.101 0 4.588.015 6.207.09 1.498.069 2.31.319 2.852.529.717.279 1.229.612 1.766 1.149s.87 1.05 1.149 1.766c.21.541.461 1.354.529 2.852.074 1.619.09 2.106.09 6.207s-.015 4.588-.09 6.207c-.069 1.498-.319 2.31-.529 2.852a4.78 4.78 0 0 1-1.148 1.765l-.001.001c-.538.538-1.05.87-1.766 1.149-.541.21-1.354.461-2.852.529-1.619.074-2.106.09-6.207.09s-4.588-.015-6.208-.09c-1.496-.069-2.309-.319-2.851-.529a4.78 4.78 0 0 1-1.765-1.148l-.001-.001a4.769 4.769 0 0 1-1.149-1.766c-.21-.541-.461-1.354-.529-2.852-.074-1.619-.09-2.106-.09-6.207s.015-4.588.09-6.208c.068-1.496.319-2.309.529-2.851.279-.717.612-1.229 1.149-1.766s1.05-.87 1.766-1.149c.541-.21 1.354-.461 2.852-.529 1.619-.074 2.106-.09 6.207-.09z"/><path d="M15.361 21.117a5.12 5.12 0 1 1 0-10.24 5.12 5.12 0 1 1 0 10.24zm0-13.007a7.887 7.887 0 1 0 0 15.774 7.887 7.887 0 1 0 0-15.774zm10.042-.302a1.843 1.843 0 1 1-3.686 0 1.843 1.843 0 1 1 3.686 0z"/></symbol><symbol id="icon-logo" viewBox="0 0 49 32"><path d="M13.971 8.681 8.858 18.57v4.882H5.26V18.57L.147 8.681h4.082l2.862 6.186 2.841-6.186h4.04zm7.005 14.939c-1.151 0-2.189-.245-3.115-.736a5.478 5.478 0 0 1-2.167-2.104c-.519-.912-.779-1.978-.779-3.198 0-1.206.267-2.265.8-3.177.533-.926 1.262-1.634 2.188-2.125s1.964-.736 3.114-.736 2.188.245 3.114.736 1.655 1.199 2.188 2.125c.533.912.8 1.971.8 3.177s-.274 2.272-.821 3.198a5.46 5.46 0 0 1-2.18 2.09l-.03.014c-.926.491-1.964.736-3.114.736zm0-3.114c.687 0 1.269-.253 1.746-.757.491-.505.736-1.227.736-2.167s-.238-1.662-.715-2.167a2.245 2.245 0 0 0-1.725-.757c-.701 0-1.284.252-1.746.757-.463.491-.694 1.213-.694 2.167 0 .94.224 1.662.673 2.167a2.245 2.245 0 0 0 1.725.757zM33.7 11.543c.828 0 1.55.168 2.167.505.631.337 1.115.779 1.452 1.326v-1.662h3.598v11.72c0 1.08-.217 2.055-.652 2.925-.421.884-1.073 1.585-1.957 2.104-.87.519-1.957.779-3.261.779-1.739 0-3.149-.414-4.229-1.241-1.08-.814-1.697-1.922-1.852-3.325h3.556c.112.449.379.8.8 1.052.421.267.94.4 1.557.4.743 0 1.333-.217 1.767-.652.449-.421.673-1.101.673-2.041v-1.662a4.087 4.087 0 0 1-1.452 1.347c-.617.337-1.34.505-2.167.505-.968 0-1.845-.245-2.63-.736-.786-.505-1.41-1.213-1.873-2.125-.449-.926-.673-1.992-.673-3.198s.224-2.265.673-3.177c.463-.912 1.087-1.613 1.873-2.104s1.662-.736 2.63-.736zm3.619 6.039c0-.898-.252-1.606-.757-2.125-.491-.519-1.094-.779-1.81-.779s-1.326.259-1.831.779c-.491.505-.736 1.206-.736 2.104s.245 1.613.736 2.146c.505.519 1.115.779 1.831.779s1.319-.259 1.81-.779c.505-.519.757-1.227.757-2.125zm8.221-7.091c-.631 0-1.15-.182-1.557-.547a1.855 1.855 0 0 1-.589-1.389c0-.561.196-1.024.589-1.389.407-.379.926-.568 1.557-.568.617 0 1.122.189 1.515.568.407.365.61.828.61 1.389 0 .547-.203 1.01-.61 1.389-.393.365-.898.547-1.515.547zm1.788 1.22v11.741H43.73V11.711h3.598z"/></symbol><symbol id="icon-microsoft" viewBox="0 0 147 32"><path d="M146.918 14.504v-2.587h-3.202V7.894l-3.175.975v3.048h-4.747v-1.698c0-.79.177-1.395.523-1.799.345-.399.838-.602 1.467-.602.452 0 .92.107 1.391.318l.118.053V5.464l-.056-.021c-.439-.158-1.037-.238-1.778-.238-.934 0-1.783.204-2.523.608a4.351 4.351 0 0 0-1.72 1.696l-.011.022c-.407.734-.613 1.581-.613 2.519v1.867h-2.23v2.587h2.23v10.902h3.201V14.504h4.747v6.927c0 2.853 1.341 4.299 3.986 4.299.434 0 .892-.051 1.359-.151.475-.103.799-.206.99-.315l.042-.025v-2.611l-.13.086c-.174.117-.39.211-.643.282a2.432 2.432 0 0 1-.633.108c-.619 0-1.078-.168-1.362-.498-.287-.334-.434-.917-.434-1.733v-6.369h3.202zm-23.704 8.6c-1.162 0-2.078-.386-2.723-1.148-.65-.766-.979-1.857-.979-3.243 0-1.43.329-2.55.979-3.329.646-.774 1.553-1.166 2.697-1.166 1.11 0 1.993.375 2.626 1.115.636.744.959 1.854.959 3.302 0 1.465-.303 2.59-.902 3.343-.594.746-1.488 1.126-2.657 1.126zm.143-11.513c-2.217 0-3.977.651-5.232 1.937-1.254 1.286-1.89 3.065-1.89 5.288 0 2.112.621 3.811 1.845 5.049s2.891 1.865 4.953 1.865c2.149 0 3.874-.661 5.129-1.964 1.254-1.302 1.89-3.064 1.89-5.236 0-2.145-.596-3.856-1.773-5.086s-2.834-1.853-4.922-1.853zm-12.284 0c-1.508 0-2.755.387-3.707 1.15-.959.767-1.445 1.774-1.445 2.993 0 .633.105 1.195.311 1.673.224.501.549.92.951 1.249l.006.005c.424.351 1.079.719 1.946 1.093.729.301 1.273.555 1.618.757.338.197.577.394.713.587.131.189.198.446.198.765 0 .906-.676 1.347-2.067 1.347-.517 0-1.105-.108-1.75-.321a6.564 6.564 0 0 1-1.811-.925l.019.013-.133-.095v3.093l.049.023c.453.21 1.024.386 1.697.526.671.139 1.282.21 1.812.21 1.637 0 2.954-.389 3.915-1.157.967-.773 1.458-1.803 1.458-3.063 0-.91-.264-1.689-.785-2.318-.517-.624-1.413-1.197-2.664-1.703-.997-.401-1.635-.734-1.899-.99-.254-.247-.382-.597-.382-1.039 0-.393.159-.707.486-.961.329-.256.787-.386 1.362-.386.533 0 1.079.085 1.622.25a5.204 5.204 0 0 1 1.416.659l.131.09v-2.934l-.05-.022c-.367-.158-.851-.293-1.438-.402a8.74 8.74 0 0 0-1.577-.164zM97.576 23.104c-1.162 0-2.078-.386-2.723-1.148-.65-.766-.978-1.856-.978-3.243 0-1.43.329-2.55.979-3.329.645-.774 1.553-1.166 2.697-1.166 1.11 0 1.993.375 2.626 1.115.636.744.959 1.854.959 3.302 0 1.465-.304 2.59-.902 3.343-.594.746-1.488 1.126-2.657 1.126zm.143-11.513c-2.217 0-3.978.651-5.233 1.937s-1.891 3.065-1.891 5.288c0 2.113.621 3.811 1.846 5.049s2.891 1.865 4.953 1.865c2.149 0 3.874-.661 5.129-1.964 1.254-1.302 1.89-3.064 1.89-5.236 0-2.145-.597-3.856-1.774-5.086s-2.834-1.853-4.921-1.853zm-11.982 2.662v-2.336h-3.162v13.489h3.162v-6.9c0-1.173.265-2.137.789-2.865.516-.719 1.205-1.084 2.045-1.084.285 0 .605.047.951.141.343.093.591.193.737.299l.133.097v-3.199l-.051-.022c-.294-.126-.711-.189-1.238-.189-.794 0-1.505.256-2.114.76-.535.443-.921 1.051-1.217 1.81h-.034zm-8.824-2.662c-1.451 0-2.745.312-3.845.927a6.285 6.285 0 0 0-2.52 2.583l-.016.035c-.578 1.117-.871 2.421-.871 3.876 0 1.274.284 2.444.846 3.475a5.958 5.958 0 0 0 2.366 2.401c1.006.56 2.169.843 3.457.843 1.503 0 2.786-.302 3.814-.896l.042-.024v-2.907l-.133.097a5.875 5.875 0 0 1-1.505.796l-.041.013c-.559.195-1.069.294-1.515.294-1.241 0-2.237-.389-2.959-1.158-.725-.769-1.092-1.849-1.092-3.207 0-1.367.383-2.475 1.138-3.293.753-.815 1.751-1.228 2.966-1.228 1.039 0 2.052.353 3.01 1.05l.133.097v-3.063l-.043-.025c-.361-.202-.853-.37-1.463-.497a8.45 8.45 0 0 0-1.765-.19h-.002zm-9.43.326h-3.162v13.489h3.162V11.917zM65.934 6.17c-.521 0-.974.178-1.347.53a1.754 1.754 0 0 0-.565 1.323c0 .517.188.953.559 1.297.369.343.824.517 1.353.517s.986-.174 1.359-.516c.375-.345.566-.781.566-1.298 0-.506-.185-.947-.55-1.309s-.827-.545-1.374-.545zm-7.889 4.751v14.485h3.227V6.583h-4.466l-5.677 13.98-5.509-13.98h-4.649v18.822h3.033V10.919h.104l5.817 14.486h2.289l5.726-14.484h.105zM15.166 15.22H.292V.294h14.874V15.22zm16.423 0H16.715V.294h14.874V15.22zM15.165 31.706H.291V16.78h14.874v14.926zm16.424 0H16.715V16.78h14.874v14.926z"/></symbol><symbol id="icon-twitter" viewBox="0 0 31 32"><path d="M9.661 28.481c11.592 0 17.933-9.604 17.933-17.933 0-.273 0-.544-.019-.814a12.934 12.934 0 0 0 3.116-3.219l.029-.045c-1.054.48-2.277.83-3.559.986l-.061.006a6.353 6.353 0 0 0 2.758-3.441l.013-.045a12.403 12.403 0 0 1-3.921 1.516l-.081.014a6.297 6.297 0 0 0-4.595-1.987c-3.461 0-6.309 2.848-6.309 6.309 0 .48.055.959.163 1.426A17.887 17.887 0 0 1 2.164 4.7l-.025-.032a6.264 6.264 0 0 0-.845 3.161c0 2.179 1.1 4.1 2.775 5.24l.022.014a6.224 6.224 0 0 1-2.892-.806l.031.016v.081a6.326 6.326 0 0 0 5.015 6.17l.041.007a6.147 6.147 0 0 1-1.657.222 6.29 6.29 0 0 1-1.228-.12l.04.007c.833 2.522 3.143 4.32 5.881 4.378h.007a12.568 12.568 0 0 1-7.812 2.701c-.534 0-1.06-.033-1.577-.097l.062.006c2.725 1.772 6.058 2.826 9.638 2.826h.025-.001z"/></symbol><symbol id="icon-yahoo" viewBox="0 0 113 32"><path d="M.314 7.948h6.7l3.901 10.031 3.952-10.031h6.523l-9.823 23.745H5.003l2.689-6.292L.314 7.949zm27.872-.4c-5.034 0-8.217 4.537-8.217 9.055 0 5.084 3.489 9.115 8.121 9.115 3.455 0 4.758-2.116 4.758-2.116v1.648h5.844V7.947h-5.844v1.574s-1.454-1.973-4.662-1.973zm1.244 5.561c2.322 0 3.521 1.847 3.521 3.514 0 1.794-1.284 3.555-3.521 3.555-1.854 0-3.53-1.522-3.53-3.479 0-1.984 1.348-3.59 3.53-3.59zM40.704 25.25V.307h6.112V9.58s1.452-2.031 4.492-2.031c3.719 0 5.898 2.785 5.898 6.764v10.936h-6.068v-9.438c0-1.347-.638-2.648-2.084-2.648-1.472 0-2.239 1.321-2.239 2.648v9.438h-6.111zM67.628 7.551c-5.765 0-9.198 4.405-9.198 9.125 0 5.37 4.156 9.042 9.219 9.042 4.907 0 9.201-3.505 9.201-8.953 0-5.961-4.496-9.215-9.223-9.215zm.054 5.609c2.036 0 3.446 1.705 3.446 3.522 0 1.551-1.313 3.462-3.446 3.462-1.954 0-3.42-1.575-3.42-3.479 0-1.834 1.219-3.505 3.42-3.505zm19.351-5.609c-5.765 0-9.198 4.405-9.198 9.125 0 5.37 4.156 9.042 9.219 9.042 4.908 0 9.202-3.505 9.202-8.953 0-5.961-4.497-9.215-9.223-9.215zm.055 5.609c2.036 0 3.446 1.705 3.446 3.522 0 1.551-1.313 3.462-3.446 3.462-1.954 0-3.42-1.575-3.42-3.479 0-1.834 1.219-3.505 3.42-3.505zm13.991 12.458c2.241 0 4.058-1.826 4.058-4.079s-1.817-4.078-4.058-4.078c-2.242 0-4.058 1.826-4.058 4.079s1.817 4.078 4.058 4.078zm5.392-9.655h-7.306L105.65.308h7.279l-6.457 15.655z"/></symbol><symbol id="icon-star" viewBox="0 0 33 32"><path d="m16.614.006 3.878 11.936h12.549l-10.153 7.377 3.878 11.936-10.153-7.377L6.46 31.255l3.878-11.936L.182 11.942h12.552L16.612.006z"/></symbol></defs></svg>