<svg aria-hidden="true" style="position: absolute; width: 0; height: 0; overflow: hidden;" version="1.1" xmlns="http://www.w3.org/2000/svg" xmlns:xlink="http://www.w3.org/1999/xlink">
<defs>
<symbol id="icon-youtube" viewBox="0 0 31 32">
<path fill="#120d26" style="fill: var(--color1, #120d26)" d="M30.077 8.603c-0.365-1.327-1.388-2.351-2.688-2.71l-0.027-0.006c-2.396-0.641-12.003-0.641-12.003-0.641s-9.606 0-12.003 0.641c-1.327 0.365-2.351 1.389-2.71 2.689l-0.006 0.027c-0.641 2.396-0.641 7.395-0.641 7.395s0 4.998 0.641 7.393c0.365 1.327 1.389 2.351 2.689 2.71l0.027 0.006c2.396 0.643 12.003 0.643 12.003 0.643s9.606 0 12.003-0.643c1.327-0.365 2.35-1.389 2.709-2.689l0.006-0.027c0.643-2.395 0.643-7.393 0.643-7.393s0-4.998-0.643-7.395z"></path>
<path fill="#fff" style="fill: var(--color2, #fff)" d="M12.288 20.611l7.982-4.608-7.981-4.608v9.216z"></path>
</symbol>
<symbol id="icon-arrow-down" viewBox="0 0 31 32">
<path d="M5.722 10.842c0.174-0.174 0.414-0.281 0.679-0.281 0.215 0 0.413 0.070 0.573 0.19l-0.003-0.002 0.108 0.093 8.282 8.28 8.282-8.282c0.174-0.173 0.413-0.281 0.678-0.281 0.215 0 0.414 0.071 0.574 0.19l-0.003-0.002 0.108 0.093c0.174 0.174 0.281 0.414 0.281 0.679 0 0.215-0.070 0.413-0.19 0.573l0.002-0.003-0.093 0.108-8.96 8.96c-0.174 0.174-0.414 0.281-0.679 0.281-0.215 0-0.413-0.070-0.573-0.19l0.003 0.002-0.108-0.093-8.96-8.96c-0.173-0.174-0.281-0.413-0.281-0.678s0.107-0.505 0.281-0.678v0z"></path>
</symbol>
<symbol id="icon-arrow-right" viewBox="0 0 33 32">
<path d="M11.293 26.040c-0.181-0.181-0.293-0.431-0.293-0.707 0-0.224 0.073-0.43 0.198-0.597l-0.002 0.003 0.097-0.112 8.625-8.627-8.627-8.627c-0.181-0.181-0.292-0.431-0.292-0.706 0-0.224 0.074-0.431 0.198-0.598l-0.002 0.003 0.097-0.112c0.181-0.181 0.431-0.293 0.707-0.293 0.224 0 0.43 0.073 0.597 0.198l-0.003-0.002 0.112 0.097 9.333 9.333c0.181 0.181 0.293 0.431 0.293 0.707 0 0.224-0.073 0.43-0.198 0.597l0.002-0.003-0.097 0.112-9.333 9.333c-0.181 0.181-0.431 0.292-0.707 0.292s-0.526-0.112-0.707-0.292v0z"></path>
</symbol>
<symbol id="icon-facebook" viewBox="0 0 31 32">
<path d="M22.451 17.789l0.847-5.517h-5.294v-3.581c0-1.51 0.739-2.981 3.11-2.981h2.406v-4.698s-2.184-0.372-4.273-0.372c-4.36 0-7.209 2.642-7.209 7.427v4.205h-4.847v5.518h4.847v13.338c0.896 0.148 1.93 0.233 2.982 0.233s2.086-0.085 3.093-0.248l-0.11 0.015v-13.338h4.448z"></path>
</symbol>
<symbol id="icon-google" viewBox="0 0 97 32">
<path d="M12.156 0.004h0.859c2.98 0.066 5.912 1.283 8.018 3.438-0.778 0.806-1.571 1.579-2.332 2.385-1.182-1.085-2.608-1.924-4.163-2.221-2.3-0.493-4.779-0.049-6.706 1.283-2.106 1.398-3.531 3.767-3.839 6.3-0.34 2.5 0.356 5.132 1.96 7.073 1.539 1.892 3.888 3.076 6.317 3.158 2.268 0.132 4.633-0.576 6.285-2.188 1.296-1.135 1.895-2.862 2.089-4.54-2.689 0-5.378 0.016-8.066 0v-3.389h11.322c0.583 3.635-0.259 7.731-2.98 10.331-1.814 1.842-4.325 2.928-6.884 3.141-2.478 0.247-5.037-0.23-7.241-1.447-2.64-1.431-4.746-3.849-5.782-6.695-0.972-2.615-0.988-5.577-0.081-8.208 0.827-2.403 2.414-4.524 4.455-6.005 1.96-1.463 4.341-2.27 6.771-2.418zM77.109 0.859h3.466v23.49c-1.15 0-2.316 0.016-3.466-0.017 0.016-7.813 0-15.644 0-23.474zM31.61 9.001c2.138-0.411 4.454 0.050 6.22 1.349 1.604 1.151 2.721 2.961 3.061 4.934 0.437 2.287-0.113 4.787-1.571 6.596-1.571 2.023-4.147 3.109-6.657 2.945-2.3-0.131-4.535-1.299-5.896-3.207-1.539-2.106-1.911-5.001-1.069-7.468 0.843-2.649 3.223-4.672 5.913-5.149zM32.095 12.126c-0.919 0.248-1.695 0.763-2.262 1.456l-0.006 0.008c-1.571 1.908-1.474 5.018 0.259 6.794 0.988 1.020 2.478 1.497 3.855 1.217 1.28-0.23 2.397-1.102 3.013-2.254 1.069-1.957 0.761-4.655-0.875-6.185-1.053-0.987-2.592-1.398-3.985-1.037zM48.779 9.001c2.446-0.477 5.119 0.213 6.949 1.957 2.98 2.714 3.305 7.797 0.761 10.923-1.539 1.973-4.033 3.059-6.495 2.944-2.349-0.066-4.665-1.25-6.058-3.207-1.571-2.155-1.911-5.116-1.020-7.633 0.891-2.566 3.223-4.524 5.863-4.985zM49.265 12.126c-0.916 0.248-1.69 0.756-2.262 1.44l-0.006 0.007c-1.555 1.875-1.49 4.935 0.178 6.727 0.988 1.069 2.527 1.596 3.952 1.3 1.264-0.247 2.398-1.102 3.013-2.253 1.053-1.974 0.745-4.672-0.907-6.202-1.053-0.987-2.592-1.381-3.969-1.020zM63.341 9.955c1.863-1.184 4.341-1.513 6.349-0.493 0.632 0.279 1.15 0.757 1.652 1.234 0.017-0.444 0-0.905 0.017-1.365 1.085 0.017 2.17 0 3.272 0.017v14.509c-0.017 2.188-0.567 4.507-2.122 6.102-1.701 1.76-4.309 2.303-6.657 1.941-2.511-0.379-4.698-2.237-5.669-4.589 0.972-0.477 1.992-0.855 2.996-1.3 0.567 1.349 1.717 2.5 3.159 2.764s3.11-0.099 4.049-1.316c1.004-1.25 1.004-2.961 0.956-4.491-0.745 0.74-1.603 1.398-2.64 1.645-2.252 0.642-4.73-0.148-6.463-1.694-1.749-1.546-2.786-3.931-2.689-6.3 0.049-2.682 1.539-5.264 3.79-6.662zM66.694 12.060c-0.988 0.165-1.911 0.724-2.543 1.497-1.523 1.842-1.523 4.787 0.016 6.596 0.875 1.069 2.284 1.661 3.644 1.514 1.28-0.132 2.462-0.955 3.094-2.090 1.069-1.924 0.891-4.54-0.55-6.218-0.891-1.036-2.316-1.547-3.661-1.3zM84.738 10.794c1.943-1.842 4.94-2.467 7.435-1.497 2.365 0.905 3.871 3.191 4.633 5.543-3.515 1.481-7.014 2.944-10.529 4.425 0.486 0.938 1.231 1.793 2.235 2.139 1.409 0.51 3.094 0.329 4.276-0.625 0.47-0.362 0.842-0.839 1.198-1.3 0.891 0.609 1.782 1.201 2.673 1.81-1.263 1.925-3.386 3.274-5.669 3.487-2.527 0.313-5.216-0.675-6.852-2.682-2.689-3.158-2.43-8.455 0.599-11.301zM86.471 13.837c-0.55 0.806-0.777 1.793-0.761 2.764 10.702-4.182 13.024-5.183 15.342-6.192l-8.296 3.214c-0.389-0.921-1.328-1.481-2.284-1.628-1.539-0.279-3.142 0.559-4.001 1.842z"></path>
</symbol>
<symbol id="icon-huawei" viewBox="0 0 135 32">
<path d="M50.847 11.277h-2.94v14.115h2.941v-5.722h6.45v5.722h2.846v-14.115h-2.846v5.722h-6.45v-5.722zM73.422 19.384c0 2.289-1.138 3.528-3.225 3.528s-3.225-1.24-3.225-3.624v-8.012h-2.845v8.106c0 4.006 2.182 6.294 6.070 6.294s6.071-2.289 6.071-6.39v-8.011h-2.845v8.106zM100.93 11.277l-3.225 9.728-3.13-9.728h-3.035l4.932 14.115h2.371l3.225-9.251 3.13 9.251h2.466l4.838-14.115h-2.94l-3.13 9.728-3.225-9.728h-2.276zM122.841 16.714h-5.217v-2.861h7.588v-2.575h-10.434v14.115h10.718v-2.575h-7.873v-3.529h5.217v-2.575zM128.911 11.277h2.845v14.115h-2.845v-14.115zM88.314 22.436l1.233 2.957h3.036l-6.166-14.115-0.095-0.095h-2.466l-6.166 14.21h2.941l1.233-2.766 0.095-0.191h6.355zM85.089 14.806l1.992 4.769 0.095 0.286h-4.363l0.095-0.286 2.182-4.769zM19.83 23.961s0.095-0.095 0-0.095c-4.363-9.537-10.339-16.881-10.339-16.881s-3.225 3.052-3.036 6.199c0.095 2.384 1.897 3.719 1.897 3.719 2.846 2.766 9.675 6.295 11.288 7.058h0.189zM18.692 26.346c0-0.095-0.189-0.095-0.189-0.095l-11.383 0.381c1.233 2.194 3.32 3.91 5.501 3.433 1.518-0.381 4.932-2.766 5.976-3.529 0.19-0.191 0.095-0.191 0.095-0.191zM18.882 25.297c0.095-0.095 0-0.191 0-0.191-5.027-3.433-14.702-8.583-14.702-8.583-0.854 2.766 0.285 4.959 0.285 4.959 1.233 2.67 3.604 3.433 3.604 3.433 1.043 0.477 2.182 0.477 2.182 0.477h8.537c0.095 0 0.095-0.095 0.095-0.095zM19.641 2.026c-0.474 0-1.802 0.381-1.802 0.381-3.035 0.763-3.699 3.529-3.699 3.529-0.569 1.717 0 3.624 0 3.624 1.043 4.482 5.976 11.922 7.019 13.447l0.095 0.095c0.095 0 0.095-0.095 0.095-0.095 1.708-16.69-1.707-20.982-1.707-20.982zM23.435 23.009c0.095 0 0.19-0.096 0.19-0.096 1.138-1.621 5.976-8.965 7.019-13.447 0 0 0.569-2.194 0-3.624 0 0-0.759-2.766-3.794-3.529 0 0-0.854-0.19-1.802-0.381 0 0-3.415 4.387-1.708 20.887 0 0.19 0.095 0.19 0.095 0.19zM26.091 26.251s-0.095 0-0.095 0.095v0.191c1.138 0.763 4.364 3.148 5.976 3.529 0 0 2.941 1.049 5.502-3.433l-11.382-0.381zM40.604 16.428s-9.675 5.245-14.702 8.679c0 0-0.095 0.095-0.095 0.191 0 0 0 0.095 0.095 0.095h8.727s0.854 0 1.992-0.477c0 0 2.372-0.763 3.699-3.529 0-0.095 1.138-2.289 0.285-4.96zM24.952 23.961s0.095 0.095 0.19 0c1.613-0.858 8.442-4.292 11.288-7.058 0 0 1.802-1.431 1.897-3.719 0.19-3.243-3.036-6.199-3.036-6.199s-5.975 7.153-10.339 16.785c0 0-0.095 0.095 0 0.191z"></path>
</symbol>
<symbol id="icon-instagram" viewBox="0 0 31 32">
<path d="M15.36 0.64c-4.172 0-4.695 0.018-6.333 0.092-1.635 0.074-2.752 0.334-3.727 0.714-1.064 0.407-1.972 1.010-2.719 1.77l-0.001 0.001c-0.762 0.748-1.365 1.656-1.755 2.67l-0.017 0.051c-0.38 0.977-0.64 2.093-0.714 3.727-0.074 1.638-0.092 2.162-0.092 6.333s0.018 4.695 0.092 6.333c0.074 1.635 0.334 2.752 0.714 3.727 0.393 1.011 0.918 1.868 1.772 2.721 0.749 0.762 1.656 1.364 2.67 1.754l0.051 0.017c0.978 0.38 2.094 0.64 3.729 0.714 1.638 0.074 2.162 0.092 6.333 0.092s4.695-0.018 6.333-0.092c1.635-0.076 2.752-0.334 3.727-0.714 1.065-0.407 1.973-1.010 2.72-1.77l0.001-0.001c0.762-0.749 1.364-1.656 1.754-2.67l0.017-0.052c0.38-0.977 0.64-2.093 0.714-3.727 0.074-1.638 0.092-2.163 0.092-6.333 0-4.172-0.018-4.695-0.092-6.333-0.076-1.635-0.334-2.752-0.714-3.727-0.407-1.065-1.010-1.973-1.77-2.72l-0.001-0.001c-0.749-0.762-1.657-1.364-2.671-1.754l-0.052-0.017c-0.977-0.38-2.093-0.64-3.727-0.714-1.638-0.074-2.163-0.092-6.333-0.092zM15.36 3.407c4.101 0 4.588 0.015 6.207 0.090 1.498 0.069 2.31 0.319 2.852 0.529 0.717 0.279 1.229 0.612 1.766 1.149s0.87 1.050 1.149 1.766c0.21 0.541 0.461 1.354 0.529 2.852 0.074 1.619 0.090 2.106 0.090 6.207s-0.015 4.588-0.090 6.207c-0.069 1.498-0.319 2.31-0.529 2.852-0.26 0.693-0.652 1.283-1.148 1.765l-0.001 0.001c-0.538 0.538-1.050 0.87-1.766 1.149-0.541 0.21-1.354 0.461-2.852 0.529-1.619 0.074-2.106 0.090-6.207 0.090s-4.588-0.015-6.208-0.090c-1.496-0.069-2.309-0.319-2.851-0.529-0.693-0.26-1.283-0.652-1.765-1.148l-0.001-0.001c-0.538-0.538-0.87-1.050-1.149-1.766-0.21-0.541-0.461-1.354-0.529-2.852-0.074-1.619-0.090-2.106-0.090-6.207s0.015-4.588 0.090-6.208c0.068-1.496 0.319-2.309 0.529-2.851 0.279-0.717 0.612-1.229 1.149-1.766s1.050-0.87 1.766-1.149c0.541-0.21 1.354-0.461 2.852-0.529 1.619-0.074 2.106-0.090 6.207-0.090z"></path>
<path d="M15.361 21.117c-2.828 0-5.12-2.292-5.12-5.12s2.292-5.12 5.12-5.12v0c2.828 0 5.12 2.292 5.12 5.12s-2.292 5.12-5.12 5.12v0zM15.361 8.11c-4.356 0-7.887 3.531-7.887 7.887s3.531 7.887 7.887 7.887v0c4.356 0 7.887-3.531 7.887-7.887s-3.531-7.887-7.887-7.887v0zM25.403 7.808c0 1.018-0.825 1.843-1.843 1.843s-1.843-0.825-1.843-1.843v0c0-1.018 0.825-1.843 1.843-1.843s1.843 0.825 1.843 1.843v0z"></path>
</symbol>
<symbol id="icon-logo" viewBox="0 0 49 32">
<path d="M13.971 8.681l-5.113 9.889v4.882h-3.598v-4.882l-5.113-9.889h4.082l2.862 6.186 2.841-6.186h4.040zM20.976 23.62c-1.151 0-2.189-0.245-3.115-0.736-0.912-0.491-1.634-1.192-2.167-2.104-0.519-0.912-0.779-1.978-0.779-3.198 0-1.206 0.267-2.265 0.8-3.177 0.533-0.926 1.262-1.634 2.188-2.125s1.964-0.736 3.114-0.736c1.15 0 2.188 0.245 3.114 0.736s1.655 1.199 2.188 2.125c0.533 0.912 0.8 1.971 0.8 3.177s-0.274 2.272-0.821 3.198c-0.527 0.9-1.279 1.618-2.18 2.090l-0.030 0.014c-0.926 0.491-1.964 0.736-3.114 0.736zM20.976 20.506c0.687 0 1.269-0.253 1.746-0.757 0.491-0.505 0.736-1.227 0.736-2.167s-0.238-1.662-0.715-2.167c-0.463-0.505-1.038-0.757-1.725-0.757-0.701 0-1.284 0.252-1.746 0.757-0.463 0.491-0.694 1.213-0.694 2.167 0 0.94 0.224 1.662 0.673 2.167 0.463 0.505 1.038 0.757 1.725 0.757zM33.7 11.543c0.828 0 1.55 0.168 2.167 0.505 0.631 0.337 1.115 0.779 1.452 1.326v-1.662h3.598v11.72c0 1.080-0.217 2.055-0.652 2.925-0.421 0.884-1.073 1.585-1.957 2.104-0.87 0.519-1.957 0.779-3.261 0.779-1.739 0-3.149-0.414-4.229-1.241-1.080-0.814-1.697-1.922-1.852-3.325h3.556c0.112 0.449 0.379 0.8 0.8 1.052 0.421 0.267 0.94 0.4 1.557 0.4 0.743 0 1.333-0.217 1.767-0.652 0.449-0.421 0.673-1.101 0.673-2.041v-1.662c-0.351 0.547-0.835 0.996-1.452 1.347-0.617 0.337-1.34 0.505-2.167 0.505-0.968 0-1.845-0.245-2.63-0.736-0.786-0.505-1.41-1.213-1.873-2.125-0.449-0.926-0.673-1.992-0.673-3.198s0.224-2.265 0.673-3.177c0.463-0.912 1.087-1.613 1.873-2.104s1.662-0.736 2.63-0.736zM37.319 17.582c0-0.898-0.252-1.606-0.757-2.125-0.491-0.519-1.094-0.779-1.81-0.779s-1.326 0.259-1.831 0.779c-0.491 0.505-0.736 1.206-0.736 2.104s0.245 1.613 0.736 2.146c0.505 0.519 1.115 0.779 1.831 0.779s1.319-0.259 1.81-0.779c0.505-0.519 0.757-1.227 0.757-2.125zM45.54 10.491c-0.631 0-1.15-0.182-1.557-0.547-0.393-0.379-0.589-0.842-0.589-1.389 0-0.561 0.196-1.024 0.589-1.389 0.407-0.379 0.926-0.568 1.557-0.568 0.617 0 1.122 0.189 1.515 0.568 0.407 0.365 0.61 0.828 0.61 1.389 0 0.547-0.203 1.010-0.61 1.389-0.393 0.365-0.898 0.547-1.515 0.547zM47.328 11.711v11.741h-3.598v-11.741h3.598z"></path>
</symbol>
<symbol id="icon-microsoft" viewBox="0 0 147 32">
<path d="M146.918 14.504v-2.587h-3.202v-4.023l-3.175 0.975v3.048h-4.747v-1.698c0-0.79 0.177-1.395 0.523-1.799 0.345-0.399 0.838-0.602 1.467-0.602 0.452 0 0.92 0.107 1.391 0.318l0.118 0.053v-2.725l-0.056-0.021c-0.439-0.158-1.037-0.238-1.778-0.238-0.934 0-1.783 0.204-2.523 0.608-0.734 0.402-1.324 0.987-1.72 1.696l-0.011 0.022c-0.407 0.734-0.613 1.581-0.613 2.519v1.867h-2.23v2.587h2.23v10.902h3.201v-10.902h4.747v6.927c0 2.853 1.341 4.299 3.986 4.299 0.434 0 0.892-0.051 1.359-0.151 0.475-0.103 0.799-0.206 0.99-0.315l0.042-0.025v-2.611l-0.13 0.086c-0.174 0.117-0.39 0.211-0.643 0.282-0.255 0.072-0.467 0.108-0.633 0.108-0.619 0-1.078-0.168-1.362-0.498-0.287-0.334-0.434-0.917-0.434-1.733v-6.369h3.202zM123.214 23.104c-1.162 0-2.078-0.386-2.723-1.148-0.65-0.766-0.979-1.857-0.979-3.243 0-1.43 0.329-2.55 0.979-3.329 0.646-0.774 1.553-1.166 2.697-1.166 1.11 0 1.993 0.375 2.626 1.115 0.636 0.744 0.959 1.854 0.959 3.302 0 1.465-0.303 2.59-0.902 3.343-0.594 0.746-1.488 1.126-2.657 1.126zM123.357 11.591c-2.217 0-3.977 0.651-5.232 1.937-1.254 1.286-1.89 3.065-1.89 5.288 0 2.112 0.621 3.811 1.845 5.049s2.891 1.865 4.953 1.865c2.149 0 3.874-0.661 5.129-1.964 1.254-1.302 1.89-3.064 1.89-5.236 0-2.145-0.596-3.856-1.773-5.086s-2.834-1.853-4.922-1.853zM111.073 11.591c-1.508 0-2.755 0.387-3.707 1.15-0.959 0.767-1.445 1.774-1.445 2.993 0 0.633 0.105 1.195 0.311 1.673 0.224 0.501 0.549 0.92 0.951 1.249l0.006 0.005c0.424 0.351 1.079 0.719 1.946 1.093 0.729 0.301 1.273 0.555 1.618 0.757 0.338 0.197 0.577 0.394 0.713 0.587 0.131 0.189 0.198 0.446 0.198 0.765 0 0.906-0.676 1.347-2.067 1.347-0.517 0-1.105-0.108-1.75-0.321-0.684-0.228-1.278-0.537-1.811-0.925l0.019 0.013-0.133-0.095v3.093l0.049 0.023c0.453 0.21 1.024 0.386 1.697 0.526 0.671 0.139 1.282 0.21 1.812 0.21 1.637 0 2.954-0.389 3.915-1.157 0.967-0.773 1.458-1.803 1.458-3.063 0-0.91-0.264-1.689-0.785-2.318-0.517-0.624-1.413-1.197-2.664-1.703-0.997-0.401-1.635-0.734-1.899-0.99-0.254-0.247-0.382-0.597-0.382-1.039 0-0.393 0.159-0.707 0.486-0.961 0.329-0.256 0.787-0.386 1.362-0.386 0.533 0 1.079 0.085 1.622 0.25 0.542 0.166 1.018 0.387 1.416 0.659l0.131 0.090v-2.934l-0.050-0.022c-0.367-0.158-0.851-0.293-1.438-0.402-0.585-0.109-1.115-0.164-1.577-0.164zM97.576 23.104c-1.162 0-2.078-0.386-2.723-1.148-0.65-0.766-0.978-1.856-0.978-3.243 0-1.43 0.329-2.55 0.979-3.329 0.645-0.774 1.553-1.166 2.697-1.166 1.11 0 1.993 0.375 2.626 1.115 0.636 0.744 0.959 1.854 0.959 3.302 0 1.465-0.304 2.59-0.902 3.343-0.594 0.746-1.488 1.126-2.657 1.126zM97.719 11.591c-2.217 0-3.978 0.651-5.233 1.937s-1.891 3.065-1.891 5.288c0 2.113 0.621 3.811 1.846 5.049s2.891 1.865 4.953 1.865c2.149 0 3.874-0.661 5.129-1.964 1.254-1.302 1.89-3.064 1.89-5.236 0-2.145-0.597-3.856-1.774-5.086s-2.834-1.853-4.921-1.853zM85.737 14.253v-2.336h-3.162v13.489h3.162v-6.9c0-1.173 0.265-2.137 0.789-2.865 0.516-0.719 1.205-1.084 2.045-1.084 0.285 0 0.605 0.047 0.951 0.141 0.343 0.093 0.591 0.193 0.737 0.299l0.133 0.097v-3.199l-0.051-0.022c-0.294-0.126-0.711-0.189-1.238-0.189-0.794 0-1.505 0.256-2.114 0.76-0.535 0.443-0.921 1.051-1.217 1.81h-0.034zM76.913 11.591c-1.451 0-2.745 0.312-3.845 0.927-1.090 0.61-1.958 1.504-2.52 2.583l-0.016 0.035c-0.578 1.117-0.871 2.421-0.871 3.876 0 1.274 0.284 2.444 0.846 3.475 0.562 1.033 1.358 1.84 2.366 2.401 1.006 0.56 2.169 0.843 3.457 0.843 1.503 0 2.786-0.302 3.814-0.896l0.042-0.024v-2.907l-0.133 0.097c-0.445 0.327-0.956 0.601-1.505 0.796l-0.041 0.013c-0.559 0.195-1.069 0.294-1.515 0.294-1.241 0-2.237-0.389-2.959-1.158-0.725-0.769-1.092-1.849-1.092-3.207 0-1.367 0.383-2.475 1.138-3.293 0.753-0.815 1.751-1.228 2.966-1.228 1.039 0 2.052 0.353 3.010 1.050l0.133 0.097v-3.063l-0.043-0.025c-0.361-0.202-0.853-0.37-1.463-0.497-0.53-0.118-1.14-0.187-1.765-0.19h-0.002zM67.483 11.917h-3.162v13.489h3.162v-13.489zM65.934 6.17c-0.521 0-0.974 0.178-1.347 0.53-0.374 0.353-0.565 0.798-0.565 1.323 0 0.517 0.188 0.953 0.559 1.297 0.369 0.343 0.824 0.517 1.353 0.517s0.986-0.174 1.359-0.516c0.375-0.345 0.566-0.781 0.566-1.298 0-0.506-0.185-0.947-0.55-1.309s-0.827-0.545-1.374-0.545zM58.045 10.921v14.485h3.227v-18.823h-4.466l-5.677 13.98-5.509-13.98h-4.649v18.822h3.033v-14.486h0.104l5.817 14.486h2.289l5.726-14.484h0.105zM15.166 15.22h-14.874v-14.926h14.874v14.926zM31.589 15.22h-14.874v-14.926h14.874v14.926zM15.165 31.706h-14.874v-14.926h14.874v14.926zM31.589 31.706h-14.874v-14.926h14.874v14.926z"></path>
</symbol>
<symbol id="icon-twitter" viewBox="0 0 31 32">
<path d="M9.661 28.481c11.592 0 17.933-9.604 17.933-17.933 0-0.273 0-0.544-0.019-0.814 1.238-0.903 2.282-1.984 3.116-3.219l0.029-0.045c-1.054 0.48-2.277 0.83-3.559 0.986l-0.061 0.006c1.303-0.789 2.282-2 2.758-3.441l0.013-0.045c-1.152 0.696-2.493 1.226-3.921 1.516l-0.081 0.014c-1.153-1.224-2.785-1.986-4.595-1.987h-0c-3.461 0-6.309 2.848-6.309 6.309 0 0.48 0.055 0.959 0.163 1.426-5.25-0.272-9.867-2.767-12.964-6.554l-0.025-0.032c-0.531 0.907-0.845 1.997-0.845 3.161 0 2.179 1.1 4.1 2.775 5.24l0.022 0.014c-1.055-0.032-2.036-0.321-2.892-0.806l0.031 0.016v0.081c0.009 3.036 2.156 5.569 5.015 6.17l0.041 0.007c-0.497 0.141-1.067 0.222-1.657 0.222-0.42 0-0.831-0.041-1.228-0.12l0.040 0.007c0.833 2.522 3.143 4.32 5.881 4.378l0.007 0c-2.129 1.684-4.852 2.701-7.812 2.701-0.534 0-1.060-0.033-1.577-0.097l0.062 0.006c2.725 1.772 6.058 2.826 9.638 2.826 0.008 0 0.017 0 0.025-0h-0.001z"></path>
</symbol>
<symbol id="icon-yahoo" viewBox="0 0 113 32">
<path d="M0.314 7.948h6.7l3.901 10.031 3.952-10.031h6.523l-9.823 23.745h-6.564l2.689-6.292-7.378-17.452zM28.186 7.548c-5.034 0-8.217 4.537-8.217 9.055 0 5.084 3.489 9.115 8.121 9.115 3.455 0 4.758-2.116 4.758-2.116v1.648h5.844v-17.303h-5.844v1.574s-1.454-1.973-4.662-1.973zM29.43 13.109c2.322 0 3.521 1.847 3.521 3.514 0 1.794-1.284 3.555-3.521 3.555-1.854 0-3.53-1.522-3.53-3.479 0-1.984 1.348-3.59 3.53-3.59zM40.704 25.25v-24.943h6.112v9.273s1.452-2.031 4.492-2.031c3.719 0 5.898 2.785 5.898 6.764v10.936h-6.068v-9.438c0-1.347-0.638-2.648-2.084-2.648-1.472 0-2.239 1.321-2.239 2.648v9.438h-6.111zM67.628 7.551c-5.765 0-9.198 4.405-9.198 9.125 0 5.37 4.156 9.042 9.219 9.042 4.907 0 9.201-3.505 9.201-8.953 0-5.961-4.496-9.215-9.223-9.215zM67.682 13.16c2.036 0 3.446 1.705 3.446 3.522 0 1.551-1.313 3.462-3.446 3.462-1.954 0-3.42-1.575-3.42-3.479 0-1.834 1.219-3.505 3.42-3.505zM87.033 7.551c-5.765 0-9.198 4.405-9.198 9.125 0 5.37 4.156 9.042 9.219 9.042 4.908 0 9.202-3.505 9.202-8.953 0-5.961-4.497-9.215-9.223-9.215zM87.088 13.16c2.036 0 3.446 1.705 3.446 3.522 0 1.551-1.313 3.462-3.446 3.462-1.954 0-3.42-1.575-3.42-3.479 0-1.834 1.219-3.505 3.42-3.505zM101.079 25.618c2.241 0 4.058-1.826 4.058-4.079s-1.817-4.078-4.058-4.078c-2.242 0-4.058 1.826-4.058 4.079s1.817 4.078 4.058 4.078zM106.471 15.963h-7.306l6.485-15.655h7.279l-6.457 15.655z"></path>
</symbol>
<symbol id="icon-star" viewBox="0 0 33 32">
<path d="M16.614 0.006l3.878 11.936h12.549l-10.153 7.377 3.878 11.936-10.153-7.377-10.153 7.377 3.878-11.936-10.156-7.377h12.552l3.878-11.936z"></path>
</symbol>
</defs>
</svg>
