<svg xmlns="http://www.w3.org/2000/svg" width="111" height="73" fill="none">
  <path fill="#FF7058" d="m31.872 19.804-11.664 22.56V53.5H12V42.364L.336 19.804h9.312l6.528 14.112 6.48-14.112h9.216Zm15.98 34.08c-2.625 0-4.993-.56-7.105-1.68-2.08-1.12-3.728-2.72-4.944-4.8-1.184-2.08-1.776-4.512-1.776-7.296 0-2.752.608-5.168 1.824-7.248 1.216-2.112 2.88-3.728 4.992-4.848 2.112-1.12 4.48-1.68 7.104-1.68 2.624 0 4.992.56 7.104 1.68 2.112 1.12 3.776 2.736 4.992 4.848 1.216 2.08 1.824 4.496 1.824 7.248s-.624 5.184-1.872 7.296a12.344 12.344 0 0 1-5.04 4.8c-2.112 1.12-4.48 1.68-7.104 1.68Zm0-7.104c1.567 0 2.895-.576 3.983-1.728 1.12-1.152 1.68-2.8 1.68-4.944s-.544-3.792-1.632-4.944c-1.056-1.152-2.368-1.728-3.936-1.728-1.6 0-2.928.576-3.984 1.728-1.056 1.12-1.584 2.768-1.584 4.944 0 2.144.512 3.792 1.536 4.944 1.056 1.152 2.368 1.728 3.936 1.728Zm29.026-20.448c1.888 0 3.536.384 4.944 1.152 1.44.768 2.544 1.776 3.312 3.024v-3.792h8.208v26.736c0 2.464-.496 4.688-1.488 6.672-.96 2.016-2.448 3.616-4.464 4.8-1.984 1.184-4.464 1.776-7.44 1.776-3.968 0-7.184-.944-9.648-2.832-2.464-1.856-3.872-4.384-4.224-7.584h8.112c.256 1.024.864 1.824 1.824 2.4.96.608 2.144.912 3.552.912 1.696 0 3.04-.496 4.032-1.488 1.024-.96 1.536-2.512 1.536-4.656V49.66c-.8 1.248-1.904 2.272-3.312 3.072-1.408.768-3.056 1.152-4.944 1.152-2.208 0-4.208-.56-6-1.68-1.792-1.152-3.216-2.768-4.272-4.848-1.024-2.112-1.536-4.544-1.536-7.296 0-2.752.512-5.168 1.536-7.248 1.056-2.08 2.48-3.68 4.272-4.8 1.792-1.12 3.792-1.68 6-1.68Zm8.256 13.776c0-2.048-.576-3.664-1.728-4.848-1.12-1.184-2.496-1.776-4.128-1.776-1.632 0-3.024.592-4.176 1.776-1.12 1.152-1.68 2.752-1.68 4.8s.56 3.68 1.68 4.896c1.152 1.184 2.544 1.776 4.176 1.776 1.632 0 3.008-.592 4.128-1.776 1.152-1.184 1.728-2.8 1.728-4.848Zm18.754-16.176c-1.44 0-2.624-.416-3.552-1.248-.896-.864-1.344-1.92-1.344-3.168 0-1.28.448-2.336 1.344-3.168.928-.864 2.112-1.296 3.552-1.296 1.408 0 2.56.432 3.456 1.296.928.832 1.392 1.888 1.392 3.168 0 1.248-.464 2.304-1.392 3.168-.896.832-2.048 1.248-3.456 1.248Zm4.08 2.784V53.5H99.76V26.716h8.208Z"/>
</svg>
