<svg xmlns="http://www.w3.org/2000/svg" width="258" height="56" fill="none">
  <g fill="#120D26" clip-path="url(#a)">
    <path d="M257.106 25.382v-4.528h-5.604v-7.04l-.189.058-5.263 1.616-.104.032v5.334h-8.308v-2.972c0-1.383.309-2.442.916-3.148.604-.698 1.467-1.053 2.568-1.053.791 0 1.61.187 2.435.556l.207.093V9.561l-.098-.036c-.769-.277-1.815-.417-3.112-.417-1.635 0-3.12.357-4.415 1.064a7.556 7.556 0 0 0-3.029 3.006c-.712 1.284-1.073 2.767-1.073 4.409v3.267h-3.902v4.528h3.902V44.46h5.601V25.382h8.308v12.123c0 4.993 2.347 7.523 6.976 7.523.76 0 1.561-.089 2.378-.264.832-.18 1.399-.36 1.732-.551l.074-.044v-4.57l-.228.15c-.304.204-.682.37-1.126.494-.446.126-.818.189-1.107.189-1.084 0-1.886-.294-2.384-.872-.503-.584-.759-1.605-.759-3.033V25.382h5.604Zm-41.481 15.05c-2.033 0-3.636-.676-4.765-2.009-1.137-1.34-1.713-3.249-1.713-5.675 0-2.503.576-4.462 1.713-5.825 1.131-1.354 2.718-2.041 4.72-2.041 1.942 0 3.488.656 4.596 1.952 1.113 1.302 1.678 3.245 1.678 5.778 0 2.563-.531 4.532-1.579 5.85-1.04 1.306-2.604 1.97-4.65 1.97Zm.249-20.147c-3.879 0-6.959 1.14-9.156 3.39-2.195 2.25-3.308 5.363-3.308 9.254 0 3.696 1.086 6.67 3.229 8.835 2.143 2.166 5.06 3.264 8.668 3.264 3.76 0 6.78-1.157 8.976-3.437 2.195-2.278 3.307-5.362 3.307-9.163 0-3.753-1.043-6.748-3.103-8.9-2.06-2.152-4.959-3.243-8.613-3.243Zm-21.496 0c-2.639 0-4.821.677-6.488 2.013-1.678 1.343-2.529 3.105-2.529 5.237 0 1.108.184 2.092.545 2.927a5.888 5.888 0 0 0 1.674 2.194c.742.614 1.888 1.258 3.405 1.912 1.276.527 2.227.972 2.832 1.324.591.344 1.01.69 1.247 1.027.23.33.346.78.346 1.338 0 1.586-1.183 2.357-3.618 2.357-.904 0-1.934-.189-3.063-.562a11.505 11.505 0 0 1-3.136-1.596l-.232-.167v5.412l.085.04c.793.367 1.792.676 2.97.92 1.175.244 2.243.368 3.171.368 2.864 0 5.169-.68 6.852-2.024 1.693-1.352 2.551-3.156 2.551-5.361 0-1.592-.462-2.956-1.373-4.056-.904-1.092-2.473-2.094-4.662-2.98-1.744-.702-2.862-1.285-3.323-1.733-.444-.432-.669-1.044-.669-1.818 0-.687.278-1.237.85-1.682.576-.448 1.378-.675 2.384-.675.933 0 1.888.148 2.838.438.948.29 1.782.678 2.478 1.153l.229.157v-5.134l-.088-.038c-.642-.276-1.489-.512-2.517-.704-1.023-.19-1.951-.287-2.759-.287Zm-23.62 20.147c-2.033 0-3.636-.676-4.765-2.009-1.137-1.34-1.712-3.248-1.712-5.675 0-2.503.575-4.462 1.713-5.825 1.129-1.354 2.717-2.041 4.719-2.041 1.942 0 3.488.656 4.596 1.952 1.113 1.302 1.678 3.245 1.678 5.778 0 2.563-.532 4.532-1.579 5.85-1.04 1.306-2.604 1.97-4.65 1.97Zm.25-20.147c-3.88 0-6.961 1.14-9.157 3.39-2.195 2.25-3.309 5.363-3.309 9.254 0 3.698 1.087 6.67 3.231 8.835 2.143 2.166 5.059 3.264 8.667 3.264 3.76 0 6.78-1.157 8.976-3.437 2.195-2.278 3.308-5.362 3.308-9.163 0-3.753-1.044-6.748-3.104-8.9-2.061-2.152-4.959-3.243-8.612-3.243Zm-20.969 4.657v-4.088h-5.533v23.605h5.533V32.384c0-2.053.464-3.74 1.38-5.014.903-1.259 2.108-1.897 3.578-1.897.499 0 1.058.082 1.664.246.6.162 1.034.338 1.29.523l.233.17v-5.599l-.09-.038c-.515-.22-1.244-.33-2.167-.33-1.39 0-2.634.448-3.7 1.33-.936.776-1.612 1.84-2.129 3.167h-.059Zm-15.442-4.657c-2.539 0-4.803.546-6.729 1.623a10.916 10.916 0 0 0-4.438 4.58c-1.011 1.954-1.524 4.237-1.524 6.783 0 2.23.497 4.277 1.481 6.081.984 1.807 2.377 3.22 4.141 4.201 1.761.98 3.796 1.476 6.049 1.476 2.63 0 4.875-.528 6.675-1.568l.073-.042v-5.087l-.233.17a10.39 10.39 0 0 1-2.707 1.415c-.978.342-1.87.515-2.652.515-2.171 0-3.914-.681-5.179-2.026-1.268-1.345-1.911-3.235-1.911-5.613 0-2.393.671-4.331 1.992-5.762 1.317-1.426 3.064-2.149 5.19-2.149 1.819 0 3.591.618 5.268 1.838l.232.17v-5.36l-.075-.043c-.631-.354-1.492-.647-2.56-.869a15.248 15.248 0 0 0-3.093-.333Zm-16.502.569h-5.534v23.605h5.534V20.854Zm-2.71-10.056c-.911 0-1.705.311-2.358.928-.655.618-.988 1.396-.988 2.315 0 .904.329 1.668.978 2.27.645.6 1.442.904 2.368.904.926 0 1.726-.304 2.378-.903.657-.603.99-1.367.99-2.271 0-.886-.324-1.657-.963-2.29-.638-.633-1.447-.953-2.405-.953Zm-13.806 8.314V44.46h5.647V11.52H99.41l-9.934 24.465-9.64-24.465H71.7v32.938h5.307v-25.35h.182l10.18 25.35h4.005l10.021-25.347h.183ZM26.54 26.635H.51V.515h26.03v26.12ZM55.28 26.635H29.25V.515h26.03v26.12ZM26.539 55.486H.509V29.365h26.03v26.12ZM55.28 55.486H29.25V29.365h26.03v26.12Z"/>
  </g>
  <defs>
    <clipPath id="a">
      <path fill="#fff" d="M.51.5h256.596v55H.51z"/>
    </clipPath>
  </defs>
</svg>
