<svg xmlns="http://www.w3.org/2000/svg" width="24" height="25" fill="none">
  <path fill="#120D26" d="M7.548 22.251c9.056 0 14.01-7.503 14.01-14.01 0-.213 0-.425-.015-.636A10.02 10.02 0 0 0 24 5.055a9.83 9.83 0 0 1-2.828.775 4.942 4.942 0 0 0 2.165-2.723 9.869 9.869 0 0 1-3.127 1.195 4.93 4.93 0 0 0-3.59-1.552c-2.704 0-4.929 2.225-4.929 4.929 0 .375.043.749.127 1.114A13.986 13.986 0 0 1 1.67 3.648a4.948 4.948 0 0 0 1.525 6.574A4.887 4.887 0 0 1 .96 9.605v.063a4.94 4.94 0 0 0 3.95 4.826 4.916 4.916 0 0 1-2.223.085 4.94 4.94 0 0 0 4.6 3.42A9.882 9.882 0 0 1 0 20.038a13.942 13.942 0 0 0 7.548 2.208"/>
</svg>
